# xmcd CD database file
#
# Track frame offsets:
#	150
#	15564
#	29205
#	40674
#	52218
#	66267
#	78916
#	93603
#	111782
#	125511
#	139494
#	157290
#	175352
#	188678
#	203157
#	225296
#	238353
#	262302
#	279913
#	295700
#	308297
#
# Disc length: 4289 seconds
#
# Revision: 0
# Processed by: cddbd v1.5.2PL0 Copyright (c) Steve Scherf et al.
# Submitted via: CDex 1.51
#
DISCID=3710bf15
DTITLE=Ronnie Lee Keel - The Country Years
DYEAR=1995
DGENRE=Country
TTITLE0=My Horse Is A Harley
TTITLE1=Last Call
TTITLE2=I Want A New Job
TTITLE3=Down In Mexico
TTITLE4=Who's gonna Love Me Tonight
TTITLE5=Girls, Bars and Steel Guitars
TTITLE6=Born To Be Lonely
TTITLE7=Say No More
TTITLE8=Living Well Is Thze Best Revenge
TTITLE9=Last Call (unplugged)
TTITLE10=Redneck Radio
TTITLE11=Show On The Road
TTITLE12=Caroline Caroline
TTITLE13=Honky Tonk Highway
TTITLE14=Thick As Thieves
TTITLE15=Put Me Down In Memphis
TTITLE16=Sister Annie's Jubilee
TTITLE17=Heartbreak Special
TTITLE18=Prove To Be Wrong
TTITLE19=Dang Me
TTITLE20=Because We Love
EXTD=YEAR: 1995
EXTT0=
EXTT1=
EXTT2=
EXTT3=
EXTT4=
EXTT5=
EXTT6=
EXTT7=
EXTT8=
EXTT9=
EXTT10=
EXTT11=
EXTT12=
EXTT13=
EXTT14=
EXTT15=
EXTT16=
EXTT17=
EXTT18=
EXTT19=
EXTT20=
PLAYORDER=
